<svg width="512" height="512" fill="none" xmlns="http://www.w3.org/2000/svg"><rect width="512" height="512" rx="100" fill="url(#paint0_linear)"/><path d="M390.956 309.923c0-1.221-.594-2.365-1.594-3.069l-133.334-93.972c-.002-.002-.004-.004-.005-.007l-.009-.017c-.003-.005-.011 0-.016.001l-.026.019s-.001.001 0 0l-123.09 86.939c-1.689 1.193-2.098 3.521-.915 5.215l3.444 4.931c1.197 1.714 3.566 2.126 5.275.919l113.134-79.915c1.305-.921 3.051-.922 4.357-.002l126.832 89.397c2.497 1.76 5.947-.02 5.947-3.069v-7.37z" fill="#FFD600"/><path d="M390.997 276.862c0-1.22-.594-2.365-1.594-3.069L256.028 179.78c-.002-.002-.004-.004-.005-.007l-.009-.016v-.001c-.003-.005-.011 0-.016.001l-.026.02c0-.001-.001 0 0 0l-123.092 86.94c-1.688 1.192-2.097 3.519-.916 5.213l3.448 4.942c1.196 1.715 3.566 2.128 5.276.92l113.132-79.926c1.305-.922 3.051-.923 4.357-.002l126.872 89.424c2.498 1.76 5.948-.021 5.948-3.07v-7.356z" fill="#FFD600"/><path d="M258.191 247.564c-1.305-.92-3.051-.92-4.356.001l-96.885 68.399c-1.984 1.401-4.776.594-5.56-1.701-2.54-7.43-3.382-14.252-3.382-27.978v-45.034c0-1.22.595-2.365 1.595-3.069l104.232-73.424c1.305-.92 3.05-.919 4.354.001l126.821 89.423c2.497 1.761 5.948-.019 5.948-3.069v-23.918c0-1.22-.594-2.365-1.594-3.069l-131.175-92.454c-1.304-.92-3.049-.92-4.353-.001l-131.242 92.468c-1 .705-1.594 1.849-1.594 3.07v66.192c.181 22.402 8.148 43.999 22.463 61.079 1.228 1.464 3.378 1.7 4.941.598l105.379-74.307c1.304-.92 3.048-.921 4.353-.002l81.775 57.577c2.125 1.496 2.127 4.637.005 6.137l-81.725 57.739c-1.305.922-3.052.923-4.358.002l-60.374-42.572c-1.3-.917-3.039-.92-4.343-.008l-17.102 11.961c-2.137 1.494-2.141 4.648-.009 6.148l81.826 57.559c1.307.92 3.054.917 4.358-.007l128.475-91.04c2.118-1.501 2.114-4.637-.008-6.132l-128.465-90.569z" fill="#fff"/><path d="M124.862 76c-2.081 0-3.769 1.681-3.771 3.7558l-.085 105.0872c-.003 3.05 3.447 4.833 5.946 3.073l19.461-13.702c1-.705 1.595-1.85 1.595-3.071v-64.424c0-2.076 1.688-3.759 3.771-3.759h208.292c2.083 0 3.771 1.683 3.771 3.759v64.331c0 1.22.594 2.364 1.594 3.069l19.566 13.79c2.499 1.762 5.951-.022 5.947-3.073l-.122-105.0815c-.002-2.0743-1.69-3.7545-3.77-3.7545H124.862z" fill="#fff"/><defs><linearGradient id="paint0_linear" x1="256" y1="0" x2="256" y2="512" gradientUnits="userSpaceOnUse"><stop stop-color="#111342"/><stop offset="1" stop-color="#1D2181"/></linearGradient></defs></svg>